<?xml version="1.0" encoding="iso-8859-1"?>
<!-- Generator: Adobe Illustrator 19.0.0, SVG Export Plug-In . SVG Version: 6.00 Build 0)  -->
<svg version="1.1" id="Capa_1" xmlns="http://www.w3.org/2000/svg" xmlns:xlink="http://www.w3.org/1999/xlink" x="0px" y="0px"
	 viewBox="0 0 512 512" style="enable-background:new 0 0 512 512;" xml:space="preserve">
<path style="fill:#E47500;" d="M512,393H322V219h190V393z"/>
<path style="fill:#C8C6CD;" d="M190,393H0V189h190V393z"/>
<path style="fill:#FDB455;" d="M352,393H160V119h192V393z"/>
<path style="fill:#FF9800;" d="M352,393h-96V119h96V393z"/>
<g>
	<path style="fill:#57555C;" d="M285.939,271.6V292H230.38v-20.4h17.04v-23.88c-0.72,0.96-1.841,1.901-3.36,2.82
		c-1.521,0.921-3.221,1.781-5.1,2.58c-1.88,0.801-3.78,1.439-5.7,1.92c-1.92,0.479-3.641,0.72-5.16,0.72v-20.88
		c1.12,0,2.68-0.42,4.68-1.26c1.999-0.84,4-1.84,6-3c1.999-1.159,3.819-2.4,5.46-3.72c1.639-1.32,2.7-2.46,3.18-3.42h23.279v48.12
		H285.939z"/>
	<path style="fill:#57555C;" d="M62.84,327c0-3.999,0.319-7.519,0.96-10.56c0.64-3.04,1.68-5.779,3.12-8.221
		c1.44-2.439,3.3-4.62,5.58-6.54s5.1-3.799,8.46-5.64c4.32-2.319,7.74-4.18,10.26-5.58c2.52-1.398,4.419-2.539,5.699-3.42
		c1.279-0.88,2.1-1.62,2.461-2.22c0.359-0.601,0.539-1.261,0.539-1.98c0-1.999-0.641-3.479-1.92-4.439s-3.041-1.44-5.279-1.44
		c-2.64,0-5.142,0.681-7.5,2.04c-2.361,1.361-4.821,3.561-7.38,6.6l-14.4-16.92c1.519-1.68,3.48-3.219,5.88-4.62
		c2.4-1.398,5.059-2.599,7.98-3.6c2.919-0.999,6.019-1.779,9.3-2.34c3.279-0.559,6.639-0.84,10.079-0.84
		c9.199,0,16.18,1.901,20.941,5.7c4.758,3.8,7.139,9.101,7.139,15.899c0,2.48-0.32,4.68-0.959,6.601
		c-0.641,1.92-1.5,3.659-2.58,5.22c-1.08,1.56-2.381,2.981-3.9,4.26c-1.52,1.28-3.119,2.48-4.801,3.6c-2,1.361-4.1,2.661-6.299,3.9
		c-2.201,1.241-4.381,2.621-6.541,4.14h26.4V327H62.84z"/>
</g>
<g>
	<path style="fill:#3C3B41;" d="M429.221,304.56c2.479,0.401,4.74,1.241,6.779,2.521c2.041,1.28,3.799,2.88,5.279,4.8
		s2.641,4.101,3.48,6.54c0.84,2.441,1.26,5.021,1.26,7.74c0,3.761-0.801,7.158-2.398,10.2c-1.602,3.039-3.861,5.619-6.781,7.739
		c-2.92,2.119-6.5,3.739-10.74,4.86c-4.24,1.119-9,1.68-14.279,1.68c-6.161,0-11.601-0.779-16.32-2.34
		c-4.721-1.56-9-3.98-12.84-7.26l11.641-16.56c2.318,1.841,4.779,3.18,7.379,4.02s5.58,1.26,8.94,1.26c4.08,0,7.06-0.618,8.94-1.859
		c1.879-1.24,2.82-3.22,2.82-5.94c0-3.039-1.201-5.22-3.602-6.54c-2.398-1.32-6.32-1.979-11.76-1.979H403.3V297.6h4.199
		c3.84,0,6.919-0.738,9.24-2.22c2.32-1.479,3.48-3.499,3.48-6.06c0-1.92-0.682-3.42-2.041-4.5c-1.361-1.08-3.281-1.62-5.76-1.62
		c-2.801,0-5.42,0.701-7.859,2.1c-2.441,1.4-4.581,3.501-6.42,6.3l-14.4-16.92c1.439-1.599,3.259-3.06,5.46-4.38
		c2.199-1.319,4.681-2.46,7.44-3.42s5.699-1.698,8.82-2.22c3.119-0.52,6.318-0.78,9.6-0.78c4.398,0,8.439,0.501,12.119,1.5
		c3.68,1.001,6.799,2.421,9.361,4.26c2.559,1.842,4.559,4.062,6,6.66c1.439,2.601,2.16,5.501,2.16,8.7c0,2.4-0.402,4.68-1.201,6.84
		c-0.801,2.16-1.881,4.121-3.24,5.88c-1.361,1.761-2.98,3.24-4.859,4.44C433.52,303.36,431.459,304.16,429.221,304.56z"/>
	<path style="fill:#3C3B41;" d="M444.76,318.42c-0.84-2.439-2-4.62-3.48-6.54s-3.238-3.52-5.279-4.8
		c-2.039-1.279-4.301-2.119-6.779-2.521c2.238-0.399,4.299-1.199,6.18-2.399c1.879-1.2,3.498-2.68,4.859-4.44
		c1.359-1.759,2.439-3.72,3.24-5.88c0.799-2.16,1.201-4.439,1.201-6.84c0-3.199-0.721-6.1-2.16-8.7c-1.441-2.599-3.441-4.818-6-6.66
		c-2.563-1.839-5.682-3.259-9.361-4.26c-3.128-0.849-6.532-1.316-10.18-1.444v20.155c0.43,0.208,0.826,0.448,1.18,0.729
		c1.359,1.08,2.041,2.58,2.041,4.5c0,2.459-1.081,4.413-3.221,5.875v19.469c0.659,0.223,1.262,0.471,1.779,0.756
		c2.4,1.32,3.602,3.501,3.602,6.54c0,2.721-0.941,4.7-2.82,5.94c-0.701,0.462-1.555,0.838-2.561,1.127v21.394
		c3.252-0.251,6.3-0.723,9.1-1.461c4.24-1.121,7.82-2.741,10.74-4.86c2.92-2.12,5.18-4.7,6.781-7.739
		c1.598-3.042,2.398-6.439,2.398-10.2C446.02,323.441,445.6,320.861,444.76,318.42z"/>
	<polygon style="fill:#3C3B41;" points="270.699,271.6 270.699,223.48 256,223.48 256,292 285.939,292 285.939,271.6 	"/>
</g>
<g>
</g>
<g>
</g>
<g>
</g>
<g>
</g>
<g>
</g>
<g>
</g>
<g>
</g>
<g>
</g>
<g>
</g>
<g>
</g>
<g>
</g>
<g>
</g>
<g>
</g>
<g>
</g>
<g>
</g>
</svg>
