<svg height="512pt" viewBox="0 0 512 512" width="512pt" xmlns="http://www.w3.org/2000/svg"><path d="m151 482-70.375 15-50.625-15v-120h121l30 62.8125zm0 0" fill="#e63950"/><path d="m361 392h121v90l-49.6875 15-71.3125-15-30-44.0625zm0 0" fill="#a4d95e"/><path d="m361 301v181l-29.097656 15h-150l-30.902344-15v-181zm0 0" fill="#fdbf00"/><path d="m361 301v181l-29.097656 15h-75.902344v-196zm0 0" fill="#ff9f00"/><path d="m286 422v30h-60v-30h15v-30h-15v-30h45v60zm0 0" fill="#ff9f00"/><path d="m286 452h-30v-90h15v60h15zm0 0" fill="#ff7816"/><path d="m241 135h30v106h-30zm0 0" fill="#ff9f00"/><path d="m256 135h15v106h-15zm0 0" fill="#ff7816"/><path d="m196 211h120v60h-120zm0 0" fill="#799ce3"/><path d="m152.523438 30h58.476562l-30-30h-60v15c0 47.269531 31.832031 88.945312 77.386719 101.324219l7.882812-28.945313c-27.613281-7.5-48.164062-30.074218-53.746093-57.378906zm0 0" fill="#ff9f00"/><path d="m331 0-30 29.988281h58.476562c-5.582031 27.308594-26.132812 49.890625-53.746093 57.390625l7.882812 28.945313c45.554688-12.378907 77.386719-54.054688 77.386719-101.324219v-15zm0 0" fill="#ff7816"/><path d="m256 211h60v60h-60zm0 0" fill="#485c8c"/><path d="m181 0v75c0 41.398438 33.601562 75 75 75s75-33.601562 75-75v-75zm0 0" fill="#fdbf00"/><path d="m256 150v-150h75v75c0 41.398438-33.601562 75-75 75zm0 0" fill="#ff9f00"/><path d="m0 482h512v30h-512zm0 0" fill="#799ce3"/><path d="m256 482h256v30h-256zm0 0" fill="#485c8c"/></svg>