<svg id="Layer_1" enable-background="new 0 0 512.204 512.204" height="512" viewBox="0 0 512.204 512.204" width="512" xmlns="http://www.w3.org/2000/svg"><g><path d="m137.035 357.633h-128.732c-4.586 0-8.303-3.717-8.303-8.303v-8.707c0-33.329 27.019-60.348 60.348-60.348h58.616c20.232 0 37.767 11.544 46.379 28.404" fill="#7affe4"/><path d="m118.964 280.275h-34.862v77.358h52.933l28.308-48.954c-8.611-16.86-26.147-28.404-46.379-28.404z" fill="#00ddc1"/><path d="m346.568 308.447c8.681-16.649 26.596-28.955 46.672-28.955h66.919c28.744 0 52.045 23.301 52.045 52.045v11.685c0 7.527-6.102 13.628-13.628 13.628h-123.422" fill="#ff4a4a"/><circle cx="255.671" cy="172.193" fill="#ffd9b3" r="72.832"/><path d="m362.855 412.843h-214.369c-7.527 0-13.628-6.102-13.628-13.628v-32.792c0-41.911 33.976-75.887 75.887-75.887h89.85c41.911 0 75.887 33.976 75.887 75.887v32.792c.001 7.526-6.101 13.628-13.627 13.628z" fill="#ff9100"/><g fill="#fc9"><circle cx="426.699" cy="190.27" r="51.547"/><circle cx="84.102" cy="190.27" r="51.547"/><path d="m256.204 99.362v145.637c39.977-.288 72.298-32.773 72.298-72.818s-32.321-72.531-72.298-72.819z"/></g><path d="m300.596 290.535h-44.392v122.307h106.651c7.527 0 13.628-6.102 13.628-13.628v-32.792c0-41.911-33.976-75.887-75.887-75.887z" fill="#ff641a"/><path d="m426.699 138.724v103.093c28.468 0 51.547-23.078 51.547-51.547s-23.078-51.546-51.547-51.546z" fill="#ffb366"/><path d="m460.159 279.492h-33.732v77.358h72.149c7.527 0 13.628-6.102 13.628-13.628v-11.685c0-28.744-23.301-52.045-52.045-52.045z" fill="#c1126b"/><path d="m84.102 138.724c-.091 0-.181.006-.272.007v103.079c.091 0 .181.007.272.007 28.469 0 51.547-23.078 51.547-51.547 0-28.468-23.078-51.546-51.547-51.546z" fill="#ffb366"/></g></svg>